<?xml version="1.0" encoding="UTF-8" standalone="no"?>
<!-- Created with Inkscape (http://www.inkscape.org/) -->

<svg
   xmlns:dc="http://purl.org/dc/elements/1.1/"
   xmlns:cc="http://creativecommons.org/ns#"
   xmlns:rdf="http://www.w3.org/1999/02/22-rdf-syntax-ns#"
   xmlns:svg="http://www.w3.org/2000/svg"
   xmlns="http://www.w3.org/2000/svg"
   xmlns:sodipodi="http://sodipodi.sourceforge.net/DTD/sodipodi-0.dtd"
   xmlns:inkscape="http://www.inkscape.org/namespaces/inkscape"
   width="156.46962"
   height="100.00754"
   id="svg2"
   version="1.1"
   inkscape:version="0.48.2 r9819"
   sodipodi:docname="gallery-grid.svg">
  <defs
     id="defs4" />
  <sodipodi:namedview
     id="base"
     pagecolor="#ffffff"
     bordercolor="#666666"
     borderopacity="1.0"
     inkscape:pageopacity="0.0"
     inkscape:pageshadow="2"
     inkscape:zoom="2.8"
     inkscape:cx="7.4909465"
     inkscape:cy="25.121557"
     inkscape:document-units="px"
     inkscape:current-layer="layer1"
     showgrid="false"
     fit-margin-top="0"
     fit-margin-left="0"
     fit-margin-right="0"
     fit-margin-bottom="0"
     inkscape:window-width="1280"
     inkscape:window-height="748"
     inkscape:window-x="-8"
     inkscape:window-y="-8"
     inkscape:window-maximized="1" />
  <metadata
     id="metadata7">
    <rdf:RDF>
      <cc:Work
         rdf:about="">
        <dc:format>image/svg+xml</dc:format>
        <dc:type
           rdf:resource="http://purl.org/dc/dcmitype/StillImage" />
        <dc:title />
      </cc:Work>
    </rdf:RDF>
  </metadata>
  <g
     inkscape:label="Layer 1"
     inkscape:groupmode="layer"
     id="layer1"
     transform="translate(-337.07141,-468.07411)">
    <path
       style="fill:#000000;fill-opacity:1;stroke:#ffffff;stroke-width:1.65606129000000000;stroke-miterlimit:4;stroke-opacity:1"
       d="m 340.83897,468.92998 35.01012,0 c 1.49737,0 2.70284,1.20546 2.70284,2.70283 l 0,35.01013 c 0,1.49737 -1.20547,2.70283 -2.70284,2.70283 l -35.01012,0 c -1.49737,0 -2.70283,-1.20546 -2.70283,-2.70283 l 0,-35.01013 c 0,-1.49737 1.20546,-2.70283 2.70283,-2.70283 z"
       id="rect2985"
       inkscape:connector-curvature="0" />
    <path
       style="fill:#000000;fill-opacity:1;stroke:#ffffff;stroke-width:1.65606129000000000;stroke-miterlimit:4;stroke-opacity:1"
       d="m 397.37134,468.90214 35.01013,0 c 1.49737,0 2.70283,1.20546 2.70283,2.70283 l 0,35.01012 c 0,1.49738 -1.20546,2.70284 -2.70283,2.70284 l -35.01013,0 c -1.49736,0 -2.70283,-1.20546 -2.70283,-2.70284 l 0,-35.01012 c 0,-1.49737 1.20547,-2.70283 2.70283,-2.70283 z"
       id="rect2985-1"
       inkscape:connector-curvature="0" />
    <rect
       style="fill:#000000;fill-opacity:1;stroke:#ffffff;stroke-width:1.65606129000000000;stroke-miterlimit:4;stroke-opacity:1;stroke-dasharray:none"
       id="rect2985-7"
       width="40.415787"
       height="40.415787"
       x="337.89944"
       y="526.51129"
       ry="2.7028298" />
    <rect
       style="fill:#000000;fill-opacity:0.94117647000000004;stroke:#ffffff;stroke-width:1.65606129000000000;stroke-miterlimit:4;stroke-opacity:1;stroke-dasharray:none"
       id="rect2985-1-4"
       width="40.415787"
       height="40.415787"
       x="394.82166"
       y="526.48346"
       ry="2.7028298" />
    <path
       style="fill:#000000;fill-opacity:1;stroke:#ffffff;stroke-width:1.65606129000000000;stroke-miterlimit:4;stroke-opacity:1"
       d="m 454.84691,469.25655 35.01013,0 c 1.49737,0 2.70283,1.20546 2.70283,2.70283 l 0,35.01012 c 0,1.49738 -1.20546,2.70284 -2.70283,2.70284 l -35.01013,0 c -1.49736,0 -2.70283,-1.20546 -2.70283,-2.70284 l 0,-35.01012 c 0,-1.49737 1.20547,-2.70283 2.70283,-2.70283 z"
       id="rect2985-1-0"
       inkscape:connector-curvature="0" />
    <rect
       style="fill:#000000;fill-opacity:0.94117647000000004;stroke:#ffffff;stroke-width:1.65606129000000000;stroke-miterlimit:4;stroke-opacity:1;stroke-dasharray:none"
       id="rect2985-1-4-9"
       width="40.415787"
       height="40.415787"
       x="452.29721"
       y="526.83783"
       ry="2.7028298" />
  </g>
</svg>
